<svg xmlns="http://www.w3.org/2000/svg" viewBox="0 0 512 512" role="img" aria-label="AP. wordmark"><title>AP. wordmark</title><path fill="#17202a" d="M105.87991182541876 312.8504908738938Q91.87212710374526 312.8504908738938 80.78316485263906 307.9108065714878Q69.69420260153287 302.97112226908183 63.34374567892699 293.2022076979298Q56.993288756321114 283.4332931267778 56.993288756321114 268.8995918437895Q56.993288756321114 256.5615777595607 61.49252516099084 248.31785010568112Q65.99176156566055 240.07412245180154 73.80821812529629 235.04112118264067Q81.62467468493205 230.0081199134798 91.57107887316292 227.38249737031845Q101.5174830613938 224.7568748271571 112.41181862851612 223.7260668111963Q125.13375758039665 222.44281306791245 132.9554704166996 221.30947154511693Q140.77718325300253 220.17613002232144 144.4323177988701 217.76349501965473Q148.08745234473767 215.350860016988 148.08745234473767 210.59917788499527V209.95229473668616Q148.08745234473767 203.65958463377055 145.4144510879227 199.30622796252766Q142.7414498311078 194.9528712912848 137.6084348579725 192.63484926862753Q132.4754198848372 190.3168272459703 124.98888496562894 190.3168272459703Q117.4523793062579 190.3168272459703 111.80396032514221 192.60986389854617Q106.15554134402655 194.902900551122 102.5529695648309 198.73293268755927Q98.95039778563526 202.56296482399654 97.36472757486567 207.33567206265803L61.20062124683945 201.33227384738464Q64.9373364165218 188.48936830850982 73.75435934536978 179.54489872639462Q82.57138227421777 170.60042914427942 95.66795733002134 165.88302114609672Q108.76453238582491 161.16561314791403 125.11244357913242 161.16561314791403Q136.94801378792667 161.16561314791403 148.12366849221712 163.9700213214088Q159.29932319650757 166.77442949490361 168.18467772202905 172.74355357636693Q177.07003224755056 178.71267765783028 182.29240392402812 188.18184001165457Q187.5147756005057 197.65100236547883 187.5147756005057 211.04099401963498V310.0H150.11479424284923V289.5891955890487H148.82102794623103Q145.25798657751264 296.4207823858249 139.34538552613384 301.66417916897126Q133.43278447475507 306.90757595211755 125.12065300055309 309.8790334130057Q116.80852152635113 312.8504908738938 105.87991182541876 312.8504908738938ZM116.98435401193109 285.2007021126343Q126.29849231589759 285.2007021126343 133.34717136387877 281.4929325764459Q140.39585041185998 277.7851630402576 144.3836430719619 271.48460463416563Q148.37143573206384 265.18404622807367 148.37143573206384 257.4503940818584V241.5438656812974Q146.57018595429045 242.7561235777497 143.05437885192794 243.81717324045908Q139.53857174956542 244.87822290316848 135.2102004484039 245.71706848530343Q130.8818291472424 246.55591406743838 126.66391187974082 247.17255556899892Q122.44599461223925 247.78919707055942 119.1695286573562 248.25463033837707Q111.90130977895859 249.2354676141751 106.38962621483881 251.58632331009008Q100.87794265071902 253.93717900600507 97.82756881617414 257.8737049126896Q94.77719498162926 261.8102308193742 94.77719498162926 267.74004116130686Q94.77719498162926 273.4489434359197 97.65663148901706 277.33420258918693Q100.53606799640485 281.2194617424542 105.52709127587704 283.21008192754425Q110.51811455534923 285.2007021126343 116.98435401193109 285.2007021126343Z"/><path fill="#17202a" d="M221.12663460018962 364.9582806573957V163.00632111251582H259.9070747076485V187.74801662748894H261.82669904590705Q264.5377902526469 181.88675455317636 269.576047798475 175.72696405114175Q274.6143053443031 169.56717354910717 282.92247655509243 165.3663933485106Q291.23064776588177 161.16561314791403 303.71598204408974 161.16561314791403Q320.0641821319927 161.16561314791403 333.56973964917825 169.58819865577593Q347.0752971663637 178.01078416363782 355.20727477332883 194.82434529570958Q363.33925238029394 211.6379064277813 363.33925238029394 236.7556062835809Q363.33925238029394 261.22383096456224 355.45050396057206 278.10313166679833Q347.5617555408502 294.9824323690344 334.02070010024886 303.71398663430386Q320.4796446596476 312.4455408995733 303.49248195026075 312.4455408995733Q291.5435767867019 312.4455408995733 283.245918129247 308.3920086693071Q274.948259471792 304.3384764390408 269.77852278563523 298.3666881074194Q264.6087860994785 292.394899775798 261.82669904590705 286.4731544079883H260.5539578559576V364.9582806573957ZM291.3520476947692 280.84100982241625Q301.67856093453696 280.84100982241625 308.6759732291008 275.1873345646334Q315.67338552366465 269.5336593068505 319.2759573028603 259.53325189139537Q322.87852908205593 249.53284447594027 322.87852908205593 236.6346396965866Q322.87852908205593 223.72592236389855 319.30619894960887 213.84648153543776Q315.7338688171618 203.96704070697695 308.73645652259796 198.36859246602404Q301.7390442280341 192.77014422507114 291.3520476947692 192.77014422507114Q281.21749688882744 192.77014422507114 274.14383247076483 198.18714258553257Q267.07016805270223 203.604140945994 263.39660042667504 213.42309848095766Q259.7230328006479 223.24205601592132 259.7230328006479 236.6346396965866Q259.7230328006479 249.8852316835888 263.42684207342364 259.81989952887955Q267.1306513461994 269.75456737417034 274.23455741101054 275.2977885982933Q281.33846347582175 280.84100982241625 291.3520476947692 280.84100982241625Z"/><path fill="#17202a" d="M419.03125308648066 312.49018313942Q409.3965541294643 312.49018313942 402.8187090732656 305.98333393005294Q396.240864017067 299.47648472068585 396.240864017067 289.91278161050093Q396.240864017067 280.34907850031607 402.8187090732656 273.842229290949Q409.3965541294643 267.3353800815819 419.03125308648066 267.3353800815819Q428.6659520434971 267.3353800815819 435.24379709969577 273.842229290949Q441.82164215589444 280.34907850031607 441.82164215589444 289.91278161050093Q441.82164215589444 299.47648472068585 435.24379709969577 305.98333393005294Q428.6659520434971 312.49018313942 419.03125308648066 312.49018313942Z"/></svg>
